<?xml version="1.0" encoding="UTF-8"?>
<svg width="17px" height="17px" viewBox="0 0 17 17" version="1.1" xmlns="http://www.w3.org/2000/svg" xmlns:xlink="http://www.w3.org/1999/xlink">
    <!-- Generator: Sketch 49.2 (51160) - http://www.bohemiancoding.com/sketch -->
    <title>Facebook-color</title>
    <desc>Created with Sketch.</desc>
    <defs></defs>
    <g id="Symbols" stroke="none" stroke-width="1" fill="none" fill-rule="evenodd">
        <g id="footer" transform="translate(-250.000000, -111.000000)" fill="#4460A0">
            <path d="M259.120901,127.8 L251.074707,127.8 C250.562462,127.8 250.147476,127.384757 250.147476,126.872711 L250.147476,111.927224 C250.147476,111.415047 250.562527,111 251.074707,111 L266.02031,111 C266.53236,111 266.947476,111.415047 266.947476,111.927224 L266.947476,126.872711 C266.947476,127.384822 266.532295,127.8 266.02031,127.8 L261.739233,127.8 L261.739233,121.294114 L263.922959,121.294114 L264.249941,118.758655 L261.739233,118.758655 L261.739233,117.139924 C261.739233,116.405851 261.943075,115.905603 262.995728,115.905603 L264.338335,115.905017 L264.338335,113.637282 C264.106136,113.606383 263.30915,113.53735 262.381919,113.53735 C260.446168,113.53735 259.120901,114.718934 259.120901,116.888823 L259.120901,118.758655 L256.931569,118.758655 L256.931569,121.294114 L259.120901,121.294114 L259.120901,127.8 L259.120901,127.8 Z" id="Facebook"></path>
        </g>
    </g>
</svg>