<?xml version="1.0" encoding="UTF-8"?>
<svg width="24px" height="15px" viewBox="0 0 24 15" version="1.1" xmlns="http://www.w3.org/2000/svg" xmlns:xlink="http://www.w3.org/1999/xlink">
    <!-- Generator: Sketch 49.2 (51160) - http://www.bohemiancoding.com/sketch -->
    <title>GooglePlus-color</title>
    <desc>Created with Sketch.</desc>
    <defs></defs>
    <g id="Symbols" stroke="none" stroke-width="1" fill="none" fill-rule="evenodd">
        <g id="footer" transform="translate(-299.000000, -113.000000)" fill="#F93F2D">
            <path d="M320.416472,119.140099 L320.416472,116.593069 L318.600434,116.593069 L318.600434,119.140099 L315.985339,119.140099 L315.985339,120.959406 L318.600434,120.959406 L318.600434,123.579208 L320.416472,123.579208 L320.416472,120.959406 L322.958924,120.959406 L322.958924,119.140099 L320.416472,119.140099 L320.416472,119.140099 Z M307.195717,118.994554 L307.195717,121.905446 C307.195717,121.905446 310.014498,121.901661 311.162234,121.901661 C310.540713,123.788719 309.57429,124.816337 307.195717,124.816337 C304.788595,124.816337 302.909868,122.861455 302.909868,120.45 C302.909868,118.038545 304.788595,116.083663 307.195717,116.083663 C308.468396,116.083663 309.290335,116.531795 310.044281,117.1564 C310.647787,116.551807 310.597373,116.465645 312.132797,115.013038 C310.82939,113.824521 309.097036,113.1 307.195717,113.1 C303.143701,113.1 299.858924,116.39069 299.858924,120.45 C299.858924,124.509238 303.143701,127.8 307.195717,127.8 C313.252348,127.8 314.732709,122.516733 314.241943,118.994554 L307.195717,118.994554 L307.195717,118.994554 Z" id="GooglePlus"></path>
        </g>
    </g>
</svg>