<?xml version="1.0" encoding="UTF-8"?>
<svg width="17px" height="15px" viewBox="0 0 17 15" version="1.1" xmlns="http://www.w3.org/2000/svg" xmlns:xlink="http://www.w3.org/1999/xlink">
    <!-- Generator: Sketch 49.2 (51160) - http://www.bohemiancoding.com/sketch -->
    <title>Twitter-color</title>
    <desc>Created with Sketch.</desc>
    <defs></defs>
    <g id="Symbols" stroke="none" stroke-width="1" fill="none" fill-rule="evenodd">
        <g id="footer" transform="translate(-275.000000, -113.000000)" fill="#00AAEC">
            <path d="M291.798317,115.457349 C291.181026,115.738462 290.516402,115.928566 289.819237,116.013507 C290.531193,115.57667 291.077486,114.884001 291.334856,114.058866 C290.668259,114.463344 289.931651,114.757602 289.144752,114.915349 C288.517599,114.228747 287.621244,113.8 286.629238,113.8 C284.727073,113.8 283.183843,115.382521 283.183843,117.334128 C283.183843,117.611195 283.213426,117.880173 283.272591,118.139039 C280.408002,117.991405 277.868823,116.585843 276.167819,114.445143 C275.871006,114.968942 275.701399,115.57667 275.701399,116.223835 C275.701399,117.449404 276.309816,118.531383 277.234768,119.165403 C276.670725,119.148212 276.138236,118.987432 275.672802,118.724521 L275.672802,118.768003 C275.672802,120.480968 276.86104,121.909787 278.438782,122.233369 C278.149858,122.316287 277.845157,122.357746 277.530594,122.357746 C277.308724,122.357746 277.091785,122.336511 276.881748,122.295052 C277.320557,123.698592 278.592612,124.72091 280.101329,124.748212 C278.921966,125.696714 277.434944,126.261972 275.820716,126.261972 C275.542639,126.261972 275.26752,126.245793 274.998317,126.213434 C276.523797,127.214518 278.336229,127.8 280.281783,127.8 C286.622336,127.8 290.088439,122.415385 290.088439,117.744673 C290.088439,117.590971 290.085481,117.43727 290.079564,117.286602 C290.753063,116.788082 291.337814,116.166197 291.798317,115.457349" id="Twitter"></path>
        </g>
    </g>
</svg>